<svg viewBox="0 0 64 64" xmlns="http://www.w3.org/2000/svg"><g fill="none" stroke="#1C223F" stroke-width="2.75" stroke-linecap="round" stroke-linejoin="round"><g><path d="M24 22 V17 A4 4 0 0 1 28 13 H36 A4 4 0 0 1 40 17 V22" stroke="#1C223F" stroke-width="8.5" fill="none"></path><path d="M24 22 V17 A4 4 0 0 1 28 13 H36 A4 4 0 0 1 40 17 V22" stroke="#A4663D" stroke-width="3" fill="none"></path><path d="M7 27 A5 5 0 0 1 12 22 H52 A5 5 0 0 1 57 27 V53 A5 5 0 0 1 52 58 H12 A5 5 0 0 1 7 53 Z" fill="#EF584D"></path><path d="M28.5 31 H35.5 V36.5 H41 V43.5 H35.5 V49 H28.5 V43.5 H23 V36.5 H28.5 Z" fill="#FFFFFF" stroke-width="2.25"></path><path d="M11.5 32 V46" stroke="#FFFFFF" stroke-width="3" fill="none"></path></g></g></svg>
