<svg viewBox="0 0 64 64" xmlns="http://www.w3.org/2000/svg"><g fill="none" stroke="#1C223F" stroke-width="2.75" stroke-linecap="round" stroke-linejoin="round"><circle cx="21" cy="24" r="13" fill="#E7B174"></circle><path d="M10 15 Q2.5 18 4.5 31 Q6.5 36 11 32 Q12.5 24 13 17 Z" fill="#A4663D"></path><path d="M32 15 Q39.5 18 37.5 31 Q35.5 36 31 32 Q29.5 24 29 17 Z" fill="#A4663D"></path><circle cx="16.5" cy="22" r="1.9" fill="#1C223F" stroke="none"></circle><circle cx="25.5" cy="22" r="1.9" fill="#1C223F" stroke="none"></circle><ellipse cx="21" cy="30" rx="6.5" ry="4.8" fill="#FAF3E5"></ellipse><ellipse cx="21" cy="27.6" rx="2.8" ry="2" fill="#1C223F"></ellipse><path d="M19.2 32.5 Q21 38 22.8 32.5 Z" fill="#F896B6" stroke-width="2"></path><path d="M31 47 Q35 41.5 40 43.5 Q44 40 48 43.5 Q53 41.5 57 47 Z" fill="#A4663D"></path><path d="M27 46 H61 L57.5 56.5 A3 3 0 0 1 54.7 58.5 H33.3 A3 3 0 0 1 30.5 56.5 Z" fill="#EF584D"></path><path d="M33 50 L34.5 54.5" stroke="#FFFFFF" stroke-width="2.5" fill="none"></path><g><circle cx="46" cy="26" r="2.6" fill="#A4663D"></circle><circle cx="52.5" cy="33" r="2.6" fill="#A4663D"></circle><circle cx="42" cy="35.5" r="2.4" fill="#A4663D"></circle><path d="M46 16 V20 M53 23 V27" stroke="#1C223F" stroke-width="2.25" fill="none"></path></g></g></svg>
