<svg viewBox="0 0 64 64" xmlns="http://www.w3.org/2000/svg"><g fill="none" stroke="#080B16" stroke-width="2.75" stroke-linecap="round" stroke-linejoin="round"><path d="M2 60 Q14 51 30 57 Q46 51 62 60 Z" fill="#DAA76C"></path><path d="M13.5 29 Q28 11 42.5 29" stroke="#080B16" stroke-width="7.5" fill="none"></path><path d="M13.5 29 Q28 11 42.5 29" stroke="#848B9A" stroke-width="2" fill="none"></path><path d="M13 28 H43 L39.5 55 A3 3 0 0 1 36.5 57.5 H19.5 A3 3 0 0 1 16.5 55 Z" fill="#E7564B"></path><rect x="11" y="25" width="34" height="6.5" rx="3.25" fill="#F6C531"></rect><path d="M28 37.5 L29.69 41.17 L33.71 41.65 L30.74 44.39 L31.53 48.35 L28 46.38 L24.47 48.35 L25.26 44.39 L22.29 41.65 L26.31 41.17 Z" fill="#F1ECE4" stroke-width="2.25"></path><path d="M18.5 36 L20 50" stroke="#FFFFFF" stroke-width="3" fill="none"></path><g><path d="M52 7 L50 32" stroke="#080B16" stroke-width="9" fill="none"></path><path d="M52 7 L50 32" stroke="#5394EA" stroke-width="3.5" fill="none"></path><path d="M44 32 H56 L55 45 Q50 52 45 45 Z" fill="#5394EA"></path></g></g></svg>
