<svg viewBox="0 0 64 64" xmlns="http://www.w3.org/2000/svg"><g fill="none" stroke="#080B16" stroke-width="2.75" stroke-linecap="round" stroke-linejoin="round"><rect x="5" y="32" width="54" height="26" rx="4" fill="#F1ECE4"></rect><path d="M5 36 A4 4 0 0 1 9 32 H55 A4 4 0 0 1 59 36 V38 H5 Z" fill="#E7564B"></path><path d="M15.8 38 V58 M26.6 38 V58 M37.4 38 V58 M48.2 38 V58" stroke="#080B16" stroke-width="2" fill="none"></path><rect x="12.8" y="38" width="6" height="11" rx="1" fill="#080B16" stroke-width="1.5"></rect><rect x="23.6" y="38" width="6" height="11" rx="1" fill="#080B16" stroke-width="1.5"></rect><rect x="45.2" y="38" width="6" height="11" rx="1" fill="#080B16" stroke-width="1.5"></rect><g><path d="M22 8.5 L40 4 V9.5 L22 14 Z" fill="#A180DB"></path><path d="M22 9 V23 M40 4.5 V19" stroke="#080B16" stroke-width="7.1" fill="none"></path><path d="M22 9 V23 M40 4.5 V19" stroke="#A180DB" stroke-width="1.6" fill="none"></path><ellipse cx="18.5" cy="23.5" rx="4.2" ry="3.3" transform="rotate(-20 18.5 23.5)" fill="#A180DB"></ellipse><ellipse cx="36.5" cy="19.5" rx="4.2" ry="3.3" transform="rotate(-20 36.5 19.5)" fill="#A180DB"></ellipse></g></g></svg>
