<svg viewBox="0 0 64 64" xmlns="http://www.w3.org/2000/svg"><g fill="none" stroke="#080B16" stroke-width="2.75" stroke-linecap="round" stroke-linejoin="round"><g><path d="M49.68 14.32 C30 20 34 44 14.32 49.68 A25 25 0 0 1 49.68 14.32 Z" fill="#75CBF0"></path><path d="M49.68 14.32 C30 20 34 44 14.32 49.68 A25 25 0 0 0 49.68 14.32 Z" fill="#A180DB"></path><path d="M30 24 L33 24 M27.51 30.01 L29.63 32.13 M21.5 32.5 L21.5 35.5 M15.49 30.01 L13.37 32.13 M13 24 L10 24 M15.49 17.99 L13.37 15.87 M21.5 15.5 L21.5 12.5 M27.51 17.99 L29.63 15.87" stroke="#F28136" stroke-width="2.5" fill="none"></path><circle cx="21.5" cy="24" r="6.2" fill="#F6C531"></circle><path d="M40.68 33.61 A8 8 0 1 0 49.68 43.74 A7 7 0 0 1 40.68 33.61 Z" fill="#F6C531" stroke-width="2.25"></path><path d="M49 24 Q49.84 26.16 52 27 Q49.84 27.84 49 30 Q48.16 27.84 46 27 Q48.16 26.16 49 24 Z" fill="#F1ECE4" stroke-width="1.75"></path><path d="M11 33 Q11.3 38 13.5 41.5" stroke="#FFFFFF" stroke-width="2.75" fill="none"></path></g></g></svg>
