<svg viewBox="0 0 64 64" xmlns="http://www.w3.org/2000/svg"><g fill="none" stroke="#080B16" stroke-width="2.75" stroke-linecap="round" stroke-linejoin="round"><path d="M16 44 V33" stroke="#080B16" stroke-width="7.5" fill="none"></path><path d="M16 44 V33" stroke="#3B9160" stroke-width="2" fill="none"></path><path d="M16 37 Q6 37 4.5 28.5 Q13 27.5 16 35.5 Z" fill="#51B85F"></path><path d="M16 34 Q17.5 25 26.5 24 Q27 32.5 16 34.5 Z" fill="#51B85F"></path><path d="M7 48 H25 L22.5 59 H9.5 Z" fill="#F28136"></path><rect x="5" y="43" width="22" height="6" rx="2.5" fill="#F28136"></rect><path d="M10.5 52 L11.3 56" stroke="#FFFFFF" stroke-width="2.5" fill="none"></path><g><path d="M38 22.5 L26.5 12.5 L24 16 L37.5 30 Z" fill="#5394EA"></path><ellipse cx="24.5" cy="14" rx="2.8" ry="5" transform="rotate(-40 24.5 14)" fill="#5394EA"></ellipse><path d="M41 19 Q48 7 56 19" stroke="#080B16" stroke-width="8.5" fill="none"></path><path d="M41 19 Q48 7 56 19" stroke="#5394EA" stroke-width="3" fill="none"></path><rect x="36" y="18" width="22" height="19" rx="4" fill="#5394EA"></rect><path d="M40 23 V32" stroke="#FFFFFF" stroke-width="3" fill="none"></path></g><path d="M17 17.5 C17 17.5 14.7 19.8 14.7 21.869999999999997 A2.3 2.3 0 0 0 19.3 21.869999999999997 C19.3 19.8 17 17.5 17 17.5 Z" fill="#75CBF0" stroke-width="2"></path><path d="M23 22 C23 22 20.7 24.3 20.7 26.369999999999997 A2.3 2.3 0 0 0 25.3 26.369999999999997 C25.3 24.3 23 22 23 22 Z" fill="#75CBF0" stroke-width="2"></path><path d="M11.5 21 C11.5 21 9.4 23.1 9.4 24.99 A2.1 2.1 0 0 0 13.6 24.99 C13.6 23.1 11.5 21 11.5 21 Z" fill="#75CBF0" stroke-width="2"></path></g></svg>
